<svg width="24" height="24" viewBox="0 0 24 24" fill="none" xmlns="http://www.w3.org/2000/svg">
<path d="M5.25 12H2.25M5.25 12C5.25 12.7956 5.56607 13.5587 6.12868 14.1213C6.69129 14.6839 7.45435 15 8.25 15C9.04565 15 9.80871 14.6839 10.3713 14.1213C10.9339 13.5587 11.25 12.7956 11.25 12M5.25 12C5.25 11.2044 5.56607 10.4413 6.12868 9.87868C6.69129 9.31607 7.45435 9 8.25 9C9.04565 9 9.80871 9.31607 10.3713 9.87868C10.9339 10.4413 11.25 11.2044 11.25 12M21.75 12H11.25M21.75 4.5H18.75M18.75 4.5C18.75 5.29565 18.4339 6.05871 17.8713 6.62132C17.3087 7.18393 16.5456 7.5 15.75 7.5C14.9544 7.5 14.1913 7.18393 13.6287 6.62132C13.0661 6.05871 12.75 5.29565 12.75 4.5M18.75 4.5C18.75 3.70435 18.4339 2.94129 17.8713 2.37868C17.3087 1.81607 16.5456 1.5 15.75 1.5C14.9544 1.5 14.1913 1.81607 13.6287 2.37868C13.0661 2.94129 12.75 3.70435 12.75 4.5M12.75 4.5H2.25M21.75 19.5H18.75M18.75 19.5C18.75 20.2956 18.4339 21.0587 17.8713 21.6213C17.3087 22.1839 16.5456 22.5 15.75 22.5C14.9544 22.5 14.1913 22.1839 13.6287 21.6213C13.0661 21.0587 12.75 20.2956 12.75 19.5M18.75 19.5C18.75 18.7044 18.4339 17.9413 17.8713 17.3787C17.3087 16.8161 16.5456 16.5 15.75 16.5C14.9544 16.5 14.1913 16.8161 13.6287 17.3787C13.0661 17.9413 12.75 18.7044 12.75 19.5M12.75 19.5H2.25" stroke="black" stroke-width="2"/>
</svg>
