<svg width="24" height="24" viewBox="0 0 24 24" fill="none" xmlns="http://www.w3.org/2000/svg">
<g clip-path="url(#clip0_1_101)">
<path d="M12 0.375C15.0885 0.382947 18.0476 1.61645 20.2272 3.80457C22.4069 5.99269 23.629 8.95649 23.625 12.045C23.6147 15.0615 22.4322 17.9559 20.3273 20.1167C18.2225 22.2775 15.3602 23.5355 12.345 23.625H11.97C8.95342 23.6187 6.05743 22.44 3.89382 20.3379C1.7302 18.2359 0.46841 15.3751 0.375 12.36V11.985C0.378975 8.90446 1.6055 5.95145 3.78518 3.77458C5.96486 1.59771 8.91946 0.374997 12 0.375ZM14.925 13.125H9.075C9.3 17.475 10.83 21.135 11.895 21.375H12C13.02 21.375 14.58 17.82 14.895 13.53L14.925 13.125ZM21.315 13.125H17.175C17.04 16.065 16.38 18.795 15.405 20.745C16.9259 20.1503 18.2654 19.1693 19.2913 17.8987C20.3173 16.6282 20.9941 15.1121 21.255 13.5L21.315 13.125ZM6.81 13.125H2.7C2.90402 14.8108 3.56139 16.4098 4.60211 17.7516C5.64283 19.0935 7.02794 20.128 8.61 20.745C7.5794 18.5297 6.98848 16.1354 6.87 13.695L6.825 13.125H6.81ZM8.61 3.255L8.43 3.33C6.88899 3.96466 5.54466 4.99801 4.53504 6.32397C3.52542 7.64992 2.88688 9.22069 2.685 10.875H6.81C6.945 8.13 7.53 5.565 8.4 3.66L8.61 3.255ZM11.985 2.625C10.935 2.625 9.315 6.39 9.075 10.875H14.925C14.7 6.525 13.155 2.865 12.09 2.625H11.985ZM15.405 3.27L15.45 3.345C16.5233 5.7142 17.1099 8.27483 17.175 10.875H21.3C21.0916 9.19456 20.4342 7.60136 19.3968 6.26304C18.3594 4.92472 16.9804 3.89077 15.405 3.27Z" fill="black"/>
</g>
<defs>
<clipPath id="clip0_1_101">
<rect width="24" height="24" fill="white"/>
</clipPath>
</defs>
</svg>
