<svg width="24" height="24" viewBox="0 0 24 24" fill="none" xmlns="http://www.w3.org/2000/svg">
<g clip-path="url(#clip0_3_143)">
<path fill-rule="evenodd" clip-rule="evenodd" d="M11.325 1.18502L8.22753 7.84502L0.832526 8.79751C0.68946 8.8154 0.554579 8.87413 0.444036 8.9667C0.333493 9.05926 0.251974 9.18173 0.209239 9.31943C0.166504 9.45713 0.164366 9.60423 0.20308 9.74311C0.241795 9.882 0.31972 10.0068 0.427526 10.1025L5.90253 15.03L4.42503 22.4175C4.3972 22.5588 4.4106 22.705 4.46365 22.8389C4.51669 22.9727 4.60713 23.0884 4.72417 23.1722C4.84121 23.2561 4.9799 23.3044 5.12368 23.3116C5.26746 23.3187 5.41026 23.2843 5.53503 23.2125L12 19.4625L18.4725 23.2125C18.5973 23.2843 18.7401 23.3187 18.8839 23.3116C19.0277 23.3044 19.1663 23.2561 19.2834 23.1722C19.4004 23.0884 19.4909 22.9727 19.5439 22.8389C19.597 22.705 19.6104 22.5588 19.5825 22.4175L18.105 15.03L23.58 10.1025C23.6857 10.0059 23.7614 9.88101 23.7984 9.74269C23.8353 9.60436 23.8319 9.45835 23.7885 9.3219C23.7452 9.18546 23.6636 9.06428 23.5536 8.97268C23.4435 8.88109 23.3096 8.82291 23.1675 8.80501L15.7725 7.84502L12.6825 1.18502C12.6229 1.05407 12.5268 0.943059 12.4058 0.865211C12.2848 0.787364 12.1439 0.745972 12 0.745972C11.8561 0.745972 11.7153 0.787364 11.5943 0.865211C11.4733 0.943059 11.3772 1.05407 11.3175 1.18502H11.325Z" fill="black"/>
</g>
<defs>
<clipPath id="clip0_3_143">
<rect width="24" height="24" fill="white"/>
</clipPath>
</defs>
</svg>
