<svg width="24" height="24" viewBox="0 0 24 24" fill="none" xmlns="http://www.w3.org/2000/svg">
<g clip-path="url(#clip0_1_105)">
<path d="M11.9999 0.525024C5.6699 0.525024 0.524902 5.67002 0.524902 12C0.524902 18.33 5.6699 23.475 11.9999 23.475C18.3299 23.475 23.4749 18.33 23.4749 12C23.4749 5.67002 18.3299 0.525024 11.9999 0.525024ZM11.9999 21.525C8.9849 21.525 6.2999 20.115 4.5524 17.9175C5.7686 16.3265 7.46481 15.1694 9.3899 14.6175C8.69599 14.1777 8.1245 13.5696 7.72851 12.8497C7.33253 12.1299 7.1249 11.3216 7.1249 10.5C7.1249 9.20709 7.63852 7.96712 8.55276 7.05288C9.467 6.13864 10.707 5.62502 11.9999 5.62502C13.2928 5.62502 14.5328 6.13864 15.447 7.05288C16.3613 7.96712 16.8749 9.20709 16.8749 10.5C16.8755 11.3227 16.6681 12.1323 16.2722 12.8534C15.8762 13.5746 15.3044 14.184 14.6099 14.625C16.5352 15.1764 18.2316 16.3336 19.4474 17.925C18.5576 19.0476 17.4256 19.9545 16.1359 20.5779C14.8463 21.2013 13.4323 21.5251 11.9999 21.525Z" fill="black"/>
</g>
<defs>
<clipPath id="clip0_1_105">
<rect width="24" height="24" fill="white"/>
</clipPath>
</defs>
</svg>
