<svg width="102" height="32" viewBox="0 0 102 32" fill="none" xmlns="http://www.w3.org/2000/svg">
<g clip-path="url(#clip0_1_39)">
<path d="M29.3861 22.71C29.2437 22.3197 29.0869 21.9348 28.9161 21.556C28.6701 21.001 28.4131 20.445 28.1641 19.906L28.1441 19.864C25.8904 14.9874 23.5305 10.1606 21.0661 5.387L20.9611 5.183C20.7081 4.693 20.4471 4.186 20.1781 3.688C19.8603 3.05763 19.4747 2.46379 19.0281 1.917C18.5248 1.31625 17.8958 0.83323 17.1855 0.502007C16.4752 0.170784 15.7009 -0.000579279 14.9171 1.4712e-06C14.1334 0.000225244 13.3593 0.172048 12.6491 0.503399C11.9389 0.834749 11.3098 1.31759 10.8061 1.918C10.3599 2.46467 9.97434 3.05815 9.65615 3.688C9.38615 4.191 9.12115 4.703 8.86615 5.198L8.76915 5.387C6.30451 10.1606 3.94428 14.9874 1.69015 19.864L1.65815 19.934C1.40737 20.4726 1.16103 21.0133 0.919147 21.556C0.759147 21.917 0.592147 22.306 0.449147 22.71C0.0376021 23.8098 -0.0936787 24.9948 0.0671471 26.158C0.237684 27.3347 0.71325 28.4463 1.44657 29.3822C2.17988 30.3182 3.14541 31.0459 4.24715 31.493C5.07949 31.8298 5.96925 32.002 6.86715 32C7.14815 32 7.43015 31.983 7.71015 31.95C8.84564 31.8057 9.94098 31.4365 10.9321 30.864C12.2321 30.134 13.5151 29.064 14.9171 27.534C16.3191 29.064 17.6031 30.134 18.9031 30.864C19.8939 31.4368 20.9889 31.8063 22.1241 31.951C22.4041 31.983 22.6861 32 22.9691 32C23.867 32.002 24.7568 31.8298 25.5891 31.493C26.6909 31.0459 27.6564 30.3182 28.3897 29.3822C29.123 28.4463 29.5986 27.3347 29.7691 26.158C29.9294 24.9947 29.7978 23.8098 29.3861 22.71ZM14.9171 24.377C13.1821 22.177 12.0671 20.134 11.6771 18.421C11.5171 17.7791 11.4795 17.1128 11.5661 16.457C11.6341 15.977 11.8101 15.517 12.0821 15.115C12.4165 14.6812 12.846 14.33 13.3375 14.0885C13.829 13.847 14.3695 13.7216 14.9171 13.722C15.4649 13.722 16.0053 13.8476 16.4969 14.0891C16.9886 14.3306 17.4183 14.6815 17.7531 15.115C18.0241 15.518 18.2011 15.977 18.2691 16.458C18.3554 17.1139 18.3174 17.7802 18.1571 18.422C17.7671 20.135 16.6531 22.177 14.9171 24.377ZM27.7411 25.869C27.6217 26.6917 27.2891 27.4689 26.7763 28.1232C26.2635 28.7776 25.5885 29.2864 24.8181 29.599C24.0392 29.9112 23.1942 30.022 22.3611 29.921C21.495 29.8092 20.6604 29.5239 19.9071 29.082C18.7501 28.432 17.5791 27.435 16.2611 25.972C18.3591 23.385 19.6691 21 20.1541 18.877C20.3721 17.984 20.4201 17.057 20.2941 16.147C20.1795 15.3626 19.8882 14.6144 19.4421 13.959C18.9193 13.2511 18.2375 12.676 17.4518 12.2798C16.666 11.8836 15.7982 11.6775 14.9181 11.678C14.0382 11.678 13.1705 11.8842 12.3847 12.2802C11.5988 12.6761 10.9167 13.2508 10.3931 13.958C9.94711 14.6134 9.65578 15.3616 9.54115 16.146C9.4149 17.0563 9.4624 17.9824 9.68115 18.875C10.1651 20.999 11.4751 23.384 13.5731 25.971C12.2551 27.435 11.0851 28.433 9.92815 29.082C9.17484 29.5236 8.34019 29.8086 7.47415 29.92C6.64086 30.0214 5.79545 29.911 5.01615 29.599C4.24669 29.2852 3.57243 28.7761 3.05997 28.1219C2.54752 27.4678 2.21461 26.6912 2.09415 25.869C1.97939 25.0336 2.07707 24.1827 2.37815 23.395C2.49315 23.073 2.62715 22.757 2.79315 22.382C3.02715 21.851 3.27715 21.312 3.51815 20.79L3.55015 20.72C5.79187 15.8704 8.13909 11.0702 10.5901 6.323L10.6881 6.133C10.9381 5.646 11.1981 5.143 11.4601 4.656C11.7101 4.155 12.0131 3.682 12.3641 3.244C12.8328 2.6772 13.4767 2.28254 14.1945 2.12229C14.9123 1.96205 15.663 2.04533 16.3281 2.359C16.7691 2.567 17.1591 2.869 17.4701 3.244C17.8211 3.681 18.1241 4.154 18.3741 4.655C18.6341 5.137 18.8911 5.636 19.1401 6.119L19.2451 6.323C21.6963 11.0702 24.0436 15.8703 26.2851 20.72L26.3051 20.763C26.5501 21.293 26.8031 21.842 27.0421 22.382C27.2081 22.758 27.3421 23.074 27.4571 23.394C27.7583 24.182 27.8559 25.0332 27.7411 25.869ZM41.6852 24.12C40.8852 24.12 40.1502 23.96 39.4791 23.64C38.8078 23.3154 38.2097 22.8574 37.7211 22.294C37.2101 21.717 36.8261 21.044 36.5392 20.308C36.2512 19.539 36.1231 18.706 36.1231 17.809C36.1231 16.912 36.2831 16.047 36.5711 15.279C36.8549 14.5309 37.2656 13.8374 37.7851 13.229C38.2892 12.647 38.9099 12.1776 39.6071 11.851C40.3195 11.5266 41.0944 11.3627 41.8771 11.371C42.6761 11.371 43.3792 11.531 44.0182 11.883C44.6581 12.203 45.1681 12.684 45.5841 13.293L45.6801 11.723H48.6201V23.8H45.6801L45.5841 22.039C45.1692 22.6838 44.5974 23.2127 43.9221 23.576C43.2822 23.928 42.5162 24.12 41.6852 24.12ZM42.4521 21.237C43.0271 21.237 43.5392 21.077 44.0182 20.788C44.4662 20.468 44.8181 20.052 45.1051 19.539C45.3611 19.026 45.4881 18.418 45.4881 17.745C45.4881 17.073 45.3611 16.464 45.1051 15.951C44.8504 15.452 44.4772 15.0232 44.0182 14.702C43.5712 14.382 43.0281 14.254 42.4521 14.254C41.8771 14.254 41.3652 14.414 40.8862 14.702C40.4381 15.022 40.0861 15.439 39.7991 15.952C39.5431 16.464 39.4151 17.072 39.4151 17.745C39.4151 18.418 39.5431 19.026 39.7991 19.539C40.0551 20.051 40.4392 20.468 40.8862 20.789C41.3661 21.076 41.8761 21.237 42.4521 21.237ZM53.6391 8.456C53.6391 8.808 53.5751 9.129 53.4151 9.385C53.2551 9.641 53.0321 9.865 52.7451 10.025C52.4571 10.185 52.1371 10.25 51.8172 10.25C51.4939 10.2559 51.1747 10.1785 50.8901 10.025C50.6161 9.87206 50.3855 9.6518 50.2201 9.385C50.0634 9.10067 49.9857 8.77954 49.9951 8.455C49.9951 8.104 50.0592 7.783 50.2192 7.527C50.3792 7.239 50.6031 7.047 50.8901 6.887C51.1781 6.727 51.4981 6.662 51.8172 6.662C52.1371 6.662 52.4571 6.726 52.7441 6.886C53.0321 7.046 53.2561 7.271 53.4151 7.527C53.5431 7.783 53.6391 8.072 53.6391 8.456ZM50.2192 23.767V11.691H53.4151V23.767H50.2192ZM61.9492 14.862V14.894C61.7901 14.83 61.5991 14.798 61.4391 14.766C61.2471 14.734 61.0872 14.734 60.8951 14.734C60.0001 14.734 59.3292 14.99 58.8811 15.535C58.4011 16.079 58.1782 16.848 58.1782 17.841V23.767H54.9821V11.691H57.9221L58.0182 13.517C58.3382 12.877 58.7211 12.396 59.2651 12.044C59.7761 11.691 60.3832 11.531 61.0872 11.531C61.3102 11.531 61.5341 11.563 61.7262 11.595C61.8222 11.627 61.8862 11.627 61.9501 11.659L61.9492 14.862ZM63.2291 23.767V6.727H66.4251V13.229C66.8556 12.6629 67.4 12.1935 68.0231 11.851C68.6865 11.513 69.4207 11.3375 70.1651 11.339C70.9631 11.339 71.6992 11.499 72.3701 11.819C73.0415 12.1436 73.6396 12.6016 74.1281 13.165C74.6391 13.741 75.0231 14.414 75.3111 15.151C75.5981 15.919 75.7261 16.752 75.7261 17.649C75.7261 18.546 75.5661 19.411 75.2791 20.179C74.9951 20.9272 74.5841 21.6207 74.0641 22.229C73.5601 22.8109 72.9393 23.2804 72.2421 23.607C71.5298 23.9314 70.7548 24.0953 69.9721 24.087C69.1741 24.087 68.4701 23.927 67.8321 23.575C67.1921 23.255 66.6801 22.775 66.2651 22.165L66.1691 23.735L63.2291 23.767ZM69.3971 21.237C69.9731 21.237 70.4841 21.077 70.9631 20.788C71.4111 20.468 71.7631 20.052 72.0501 19.539C72.3061 19.026 72.4341 18.418 72.4341 17.745C72.4341 17.073 72.3061 16.464 72.0501 15.951C71.7631 15.439 71.4111 15.023 70.9631 14.702C70.5161 14.382 69.9731 14.254 69.3971 14.254C68.8222 14.254 68.3111 14.414 67.8311 14.702C67.3841 15.022 67.0322 15.439 66.7441 15.952C66.4892 16.464 66.3611 17.072 66.3611 17.745C66.3611 18.418 66.4892 19.026 66.7441 19.539C67.0001 20.051 67.3841 20.468 67.8311 20.789C68.3111 21.076 68.8222 21.237 69.3971 21.237ZM76.9411 23.767V11.691H79.8811L79.9771 13.261C80.3291 12.684 80.8081 12.236 81.4161 11.883C82.0231 11.531 82.7261 11.371 83.5261 11.371C84.4201 11.371 85.1871 11.595 85.8261 12.011C86.4981 12.428 87.0091 13.037 87.3611 13.805C87.7131 14.574 87.9041 15.503 87.9041 16.56V23.8H84.7081V16.976C84.7081 16.144 84.5162 15.471 84.1331 14.99C83.7491 14.51 83.2381 14.254 82.5661 14.254C82.0861 14.254 81.6712 14.35 81.2881 14.574C80.9361 14.798 80.6481 15.086 80.4251 15.503C80.2011 15.887 80.1051 16.368 80.1051 16.848V23.768L76.9411 23.767ZM89.5021 23.767V6.727H92.7001V13.229C93.1306 12.6629 93.6749 12.1935 94.2981 11.851C94.9615 11.513 95.6957 11.3375 96.4401 11.339C97.2392 11.339 97.9741 11.499 98.6451 11.819C99.3161 12.139 99.8921 12.588 100.403 13.165C100.915 13.741 101.298 14.414 101.586 15.151C101.874 15.919 102.001 16.752 102.001 17.649C102.004 18.5122 101.853 19.369 101.554 20.179C101.27 20.9272 100.859 21.6207 100.339 22.229C99.8352 22.811 99.2144 23.2805 98.5171 23.607C97.8048 23.9314 97.0298 24.0953 96.2471 24.087C95.4492 24.087 94.7461 23.927 94.1071 23.575C93.4671 23.255 92.9561 22.775 92.5401 22.165L92.4441 23.735L89.5041 23.767H89.5021ZM95.7041 21.237C96.2791 21.237 96.7901 21.077 97.2701 20.788C97.7171 20.468 98.0691 20.052 98.3571 19.539C98.6121 19.026 98.7401 18.418 98.7401 17.745C98.7401 17.073 98.6121 16.464 98.3571 15.951C98.1024 15.452 97.7292 15.0232 97.2701 14.702C96.8221 14.382 96.2791 14.254 95.7041 14.254C95.1282 14.254 94.6171 14.414 94.1371 14.702C93.6901 15.022 93.3382 15.439 93.0501 15.952C92.7631 16.464 92.6671 17.072 92.6671 17.745C92.6671 18.418 92.7952 19.026 93.0501 19.539C93.3061 20.051 93.6901 20.468 94.1371 20.789C94.6171 21.076 95.0971 21.237 95.7041 21.237Z" fill="#FF385C"/>
</g>
<defs>
<clipPath id="clip0_1_39">
<rect width="102" height="32" fill="white"/>
</clipPath>
</defs>
</svg>
